<svg width="412" height="233" viewBox="0 0 412 233" fill="none" xmlns="http://www.w3.org/2000/svg">
<path fill-rule="evenodd" clip-rule="evenodd" d="M238.322 73.9356H275.153V111.369H293.775C302.377 111.369 311.221 109.846 319.365 107.102C323.369 105.753 327.858 103.875 331.807 101.514C326.608 94.7654 323.952 86.243 323.174 77.8435C322.11 66.4167 324.431 51.5462 332.208 42.6039L336.081 38.1516L340.694 41.8397C352.309 51.1166 362.078 64.0815 363.8 78.8618C377.786 74.7719 394.209 75.7395 406.535 82.8123L411.592 85.7149L408.932 90.8806C398.506 111.11 376.707 117.378 355.397 116.268C323.509 195.233 254.083 232.618 169.908 232.618C126.418 232.618 86.5185 216.455 63.798 178.093L63.4252 177.468L60.1148 170.771C52.4352 153.885 49.8836 135.387 51.6138 116.902L52.1333 111.366H83.6304V73.9356H120.46V37.3169H194.124V0.698242H238.323V73.9356" fill="white"/>
<path fill-rule="evenodd" clip-rule="evenodd" d="M357.647 87.7811C360.116 68.6978 345.753 53.7109 336.846 46.5938C326.58 58.3927 324.987 89.3177 341.09 102.337C332.102 110.274 313.164 117.468 293.773 117.468H57.7252C55.8399 137.593 59.3944 156.127 67.5111 171.989L70.1963 176.875C71.8969 179.741 73.7541 182.512 75.7614 185.176C85.4666 185.796 94.4146 186.009 102.599 185.828H102.602C118.689 185.476 131.815 183.587 141.762 180.159C143.258 179.697 144.849 180.527 145.314 182.014C145.757 183.434 145.017 184.953 143.62 185.486C142.295 185.943 140.916 186.37 139.493 186.775H139.488C131.655 188.998 123.254 190.495 112.418 191.16C113.063 191.171 111.748 191.256 111.745 191.256C111.375 191.281 110.912 191.333 110.542 191.353C106.277 191.593 101.674 191.642 96.9679 191.642C91.8201 191.642 86.7514 191.545 81.0824 191.258L80.9373 191.355C100.605 213.333 131.356 226.514 169.905 226.514C251.486 226.514 320.684 190.558 351.326 109.838C373.065 112.056 393.959 106.543 403.461 88.0976C388.324 79.4112 368.856 82.1793 357.647 87.7811Z" fill="white"/>
<path fill-rule="evenodd" clip-rule="evenodd" d="M357.647 87.7815C360.116 68.698 345.753 53.7109 336.846 46.5938C326.58 58.3928 324.987 89.3181 341.09 102.337C332.102 110.274 313.164 117.469 293.774 117.469H71.704C70.7407 148.291 82.2453 171.687 102.597 185.831H102.602C118.689 185.479 131.815 183.589 141.763 180.162C143.259 179.7 144.849 180.529 145.314 182.017C145.757 183.437 145.017 184.955 143.62 185.488C142.295 185.946 140.916 186.372 139.493 186.777H139.488C131.655 189.001 122.534 190.69 111.695 191.354C111.692 191.354 111.433 191.107 111.43 191.107C139.194 205.267 179.451 205.216 225.609 187.587C277.362 167.818 325.521 130.158 359.123 87.0845C358.618 87.3108 358.125 87.5437 357.647 87.7815Z" fill="white"/>
<path fill-rule="evenodd" clip-rule="evenodd" d="M58.1885 141.926C59.6548 152.707 62.8266 162.8 67.5307 171.995L70.216 176.881C71.9165 179.747 73.7737 182.519 75.7811 185.182C85.4878 185.802 94.4358 186.015 102.622 185.835C118.709 185.482 131.835 183.593 141.782 180.165C143.278 179.703 144.868 180.533 145.333 182.02C145.777 183.44 145.036 184.959 143.639 185.492C142.315 185.949 140.936 186.376 139.513 186.781H139.508C131.675 189.004 122.601 190.597 111.765 191.263C111.392 191.286 110.744 191.291 110.367 191.31C106.105 191.548 101.548 191.692 96.8407 191.692C91.6945 191.692 86.4296 191.594 80.7656 191.309C100.433 213.287 131.376 226.517 169.924 226.517C239.767 226.517 300.531 200.161 335.797 141.924H58.1885" fill="white"/>
<path fill-rule="evenodd" clip-rule="evenodd" d="M73.8491 141.926C78.0238 160.855 88.0571 175.715 102.623 185.834C118.71 185.482 131.836 183.593 141.783 180.165C143.279 179.703 144.869 180.533 145.334 182.02C145.778 183.44 145.038 184.959 143.64 185.492C142.316 185.949 140.937 186.376 139.514 186.781H139.509C131.676 189.004 122.411 190.597 111.571 191.262C139.334 205.42 179.476 205.216 225.628 187.591C253.549 176.925 280.421 161.047 304.529 141.924H73.8491" fill="white"/>
<path fill-rule="evenodd" clip-rule="evenodd" d="M89.7549 80.0388H121.677V111.777H89.7549V80.0388ZM92.4137 82.6839H94.9323V109.132H92.4137V82.6839ZM97.149 82.6839H99.7699V109.132H97.1507L97.149 82.6839ZM101.985 82.6839H104.606V109.132H101.985V82.6839ZM106.823 82.6839H109.442V109.132H106.823V82.6839ZM111.66 82.6839H114.279V109.132H111.66V82.6839ZM116.496 82.6839H119.017V109.132H116.496V82.6839ZM126.586 43.4204H158.508V75.1569H126.584L126.586 43.4204ZM129.246 46.0655H131.763V72.5118H129.246V46.0655ZM133.981 46.0655H136.601V72.5118H133.983L133.981 46.0655ZM138.817 46.0655H141.437V72.5118H138.817V46.0655ZM143.655 46.0655H146.274V72.5118H143.655V46.0655ZM148.491 46.0655H151.112V72.5118H148.491V46.0655ZM153.327 46.0655H155.849V72.5118H153.327V46.0655Z" fill="white"/>
<path fill-rule="evenodd" clip-rule="evenodd" d="M126.602 80.0449H158.524V111.783H126.6L126.602 80.0449ZM129.262 82.6901H131.779V109.138H129.262V82.6901ZM133.998 82.6901H136.617V109.138H133.999L133.998 82.6901ZM138.834 82.6901H141.453V109.138H138.834V82.6901ZM143.671 82.6901H146.291V109.138H143.671V82.6901ZM148.508 82.6901H151.128V109.138H148.508V82.6901ZM153.344 82.6901H155.866V109.138H153.344V82.6901Z" fill="white"/>
<path fill-rule="evenodd" clip-rule="evenodd" d="M163.433 80.0449H195.356V111.783H163.433V80.0449ZM166.092 82.6901H168.609V109.138H166.092V82.6901ZM170.827 82.6901H173.447V109.138H170.827V82.6901ZM175.665 82.6901H178.284V109.138H175.665V82.6901ZM180.503 82.6901H183.122V109.138H180.503V82.6901ZM185.337 82.6901H187.96V109.138H185.337V82.6901ZM190.175 82.6901H192.694V109.138H190.175V82.6901Z" fill="white"/>
<path fill-rule="evenodd" clip-rule="evenodd" d="M163.433 43.4204H195.356V75.1569H163.433V43.4204ZM166.092 46.0655H168.609V72.5118H166.092V46.0655ZM170.827 46.0655H173.447V72.5118H170.827V46.0655ZM175.665 46.0655H178.284V72.5118H175.665V46.0655ZM180.503 46.0655H183.122V72.5118H180.503V46.0655ZM185.337 46.0655H187.96V72.5118H185.337V46.0655ZM190.175 46.0655H192.694V72.5118H190.175V46.0655ZM200.264 80.0388H232.187V111.777H200.264V80.0388ZM202.925 82.6839H205.442V109.132H202.925V82.6839ZM207.66 82.6839H210.28V109.132H207.66V82.6839ZM212.496 82.6839H215.116V109.132H212.496V82.6839ZM217.334 82.6839H219.955V109.132H217.334V82.6839ZM222.17 82.6839H224.791V109.132H222.17V82.6839ZM227.008 82.6839H229.526V109.132H227.008V82.6839Z" fill="white"/>
<path fill-rule="evenodd" clip-rule="evenodd" d="M200.242 43.4204H232.164V75.1571H200.242V43.4204ZM202.902 46.0655H205.419V72.512H202.902V46.0655ZM207.638 46.0655H210.257V72.512H207.638V46.0655ZM212.474 46.0655H215.093V72.512H212.474V46.0655ZM217.311 46.0655H219.932V72.512H217.311V46.0655ZM222.147 46.0655H224.768V72.512H222.147V46.0655ZM226.985 46.0655H229.504V72.512H226.985V46.0655Z" fill="white"/>
<path fill-rule="evenodd" clip-rule="evenodd" d="M237.113 80.0449H269.033V111.783H237.113V80.0449ZM239.77 82.6901H242.29V109.138H239.771L239.77 82.6901ZM244.507 82.6901H247.127V109.138H244.508L244.507 82.6901ZM249.344 82.6901H251.965V109.138H249.344V82.6901ZM254.18 82.6901H256.8V109.138H254.18V82.6901ZM259.017 82.6901H261.636V109.138H259.017V82.6901ZM263.853 82.6901H266.371V109.138H263.853V82.6901Z" fill="white"/>
<path fill-rule="evenodd" clip-rule="evenodd" d="M156.506 163.233C161.37 163.169 165.365 167.037 165.429 171.873C165.494 176.708 161.603 180.68 156.738 180.744C156.659 180.746 156.58 180.746 156.501 180.744C151.637 180.678 147.747 176.705 147.813 171.869C147.878 167.126 151.732 163.295 156.506 163.233Z" fill="white"/>
<path fill-rule="evenodd" clip-rule="evenodd" d="M156.518 165.714C157.323 165.714 158.092 165.865 158.801 166.139C157.572 166.849 157.153 168.415 157.867 169.637C158.326 170.424 159.172 170.91 160.086 170.911C161.061 170.911 161.907 170.375 162.344 169.58C163.68 172.778 162.154 176.446 158.938 177.774C155.722 179.103 152.032 177.586 150.696 174.388C149.36 171.19 150.885 167.522 154.102 166.193C154.867 165.877 155.689 165.714 156.518 165.714ZM0.751465 145.086H410.408C401.49 142.837 382.188 139.797 385.37 128.175C369.15 146.836 330.036 141.266 320.164 132.066C309.172 147.918 245.177 141.891 240.714 129.543C226.933 145.624 184.23 145.624 170.447 129.543C165.981 141.891 101.987 147.918 90.9938 132.065C81.1238 141.266 42.0114 146.836 25.7911 128.176C28.9745 139.797 9.67311 142.837 0.751465 145.086Z" fill="white"/>
<path fill-rule="evenodd" clip-rule="evenodd" d="M179.913 226.328C158.103 216.039 146.135 202.049 139.473 186.782C131.371 189.079 121.634 190.55 110.318 191.182C106.055 191.419 101.571 191.541 96.8682 191.541C91.4432 191.541 85.7264 191.38 79.7241 191.065C99.725 210.939 124.329 226.239 169.888 226.518C173.253 226.516 176.589 226.452 179.913 226.328Z" fill="white"/>
<path fill-rule="evenodd" clip-rule="evenodd" d="M147.6 200.87C144.583 196.798 141.655 191.68 139.505 186.776C131.403 189.077 121.663 190.548 110.345 191.181C118.118 195.376 129.235 199.262 147.6 200.87Z" fill="white"/>
</svg>
